# xmcd CD database file
#
# Track frame offsets:
#	150
#	21813
#	43676
#	70733
#	91024
#	114393
#	132822
#	156338
#	183049
#	205118
#	227002
#	250954
#	274636
#	301811
#	322065
#	347072
#	364849
#
# Disc length: 5249 seconds
#
# Revision: 0
# Processed by: cddbd v1.5.2PL0 Copyright (c) Steve Scherf et al.
# Submitted via: CDex 1.70beta2
#
DISCID=e8147f11
DTITLE=Agatha Christie - Hercule Poirots Weihnachten
DYEAR=2009
DGENRE=Hoerbuch
TTITLE0=22
TTITLE1=23
TTITLE2=24
TTITLE3=25
TTITLE4=26
TTITLE5=27
TTITLE6=28
TTITLE7=29
TTITLE8=30
TTITLE9=31
TTITLE10=32
TTITLE11=33
TTITLE12=34
TTITLE13=35
TTITLE14=36
TTITLE15=37
TTITLE16=38
EXTD=YEAR: 2009
EXTT0=
EXTT1=
EXTT2=
EXTT3=
EXTT4=
EXTT5=
EXTT6=
EXTT7=
EXTT8=
EXTT9=
EXTT10=
EXTT11=
EXTT12=
EXTT13=
EXTT14=
EXTT15=
EXTT16=
PLAYORDER=
